<?xml version="1.0" encoding="UTF-8"?>
<svg width="58px" height="31px" viewBox="0 0 58 31" version="1.1" xmlns="http://www.w3.org/2000/svg" xmlns:xlink="http://www.w3.org/1999/xlink">
    <!-- Generator: Sketch 43.1 (39012) - http://www.bohemiancoding.com/sketch -->
    <title>arrow-right</title>
    <desc>Created with Sketch.</desc>
    <defs></defs>
    <g id="Page-1"  fill-rule="evenodd">
        <g id="arrow-right" >
            <g id="Group">
                <path d="M40.3715753,0.263046923 C39.7311809,0.32200556 39.1894294,0.761279686 38.9991569,1.37585937 C38.8088845,1.99043905 39.0076023,2.6591635 39.5025685,3.06993795 L52.1155822,13.8007072 L2.38356164,13.8007072 C2.33393141,13.7983774 2.28421927,13.7983774 2.23458904,13.8007072 C1.66679832,13.8272203 1.15629023,14.1548052 0.895413066,14.6600351 C0.634535907,15.1652651 0.662934155,15.7713622 0.96990797,16.2499623 C1.27688178,16.7285625 1.81578157,17.0069347 2.38356164,16.9801944 L52.1155822,16.9801944 L39.5025685,27.6861238 C38.9868426,28.0218824 38.711196,28.6253093 38.7949655,29.2351607 C38.8787349,29.845012 39.3068649,30.3516824 39.8940036,30.5358171 C40.4811422,30.7199517 41.1217661,30.5484571 41.5385274,30.095579 L57.4289384,16.5827585 C57.779492,16.2807294 57.9810894,15.8408679 57.9810894,15.3780309 C57.9810894,14.9151939 57.779492,14.4753324 57.4289384,14.1733033 L41.5385274,0.660482821 C41.2188372,0.376321475 40.7981656,0.233050811 40.3715753,0.263046923 L40.3715753,0.263046923 Z" id="Shape"></path>
            </g>
        </g>
    </g>
</svg>