<?xml version="1.0" encoding="UTF-8"?>
<svg width="78px" height="39px" viewBox="0 0 78 39" version="1.1" xmlns="http://www.w3.org/2000/svg" xmlns:xlink="http://www.w3.org/1999/xlink">
    <!-- Generator: Sketch 41.2 (35397) - http://www.bohemiancoding.com/sketch -->
    <title>arrow-right</title>
    <desc>Created with Sketch.</desc>
    <defs></defs>
    <g id="Page-1"  fill-rule="evenodd">
        <g id="arrow-right" >
            <g id="Group" transform="translate(3.000000, 0.000000)">
                <path d="M50.8125,0.33093 C50.0064864,0.405103769 49.3246266,0.95773896 49.0851458,1.73091985 C48.845665,2.50410074 49.0957754,3.34539924 49.71875,3.86218 L65.59375,17.36218 L3,17.36218 C2.93753436,17.359249 2.87496564,17.359249 2.8125,17.36218 C2.09786685,17.3955352 1.4553308,17.8076582 1.12698541,18.44327 C0.798640021,19.0788819 0.834382644,19.8413911 1.22074624,20.443501 C1.60710983,21.0456109 2.28538025,21.395821 3,21.36218 L65.59375,21.36218 L49.71875,34.83093 C49.0696467,35.2533359 48.7227123,36.0124859 48.8281462,36.7797183 C48.9335802,37.5469506 49.4724335,38.1843747 50.2114183,38.4160279 C50.9504031,38.6476812 51.7567055,38.4319299 52.28125,37.86218 L72.28125,20.86218 C72.7224641,20.4822079 72.9761988,19.9288338 72.9761988,19.346555 C72.9761988,18.7642762 72.7224641,18.2109021 72.28125,17.83093 L52.28125,0.83093 C51.8788812,0.473436694 51.3494153,0.293192956 50.8125,0.33093 L50.8125,0.33093 Z" id="Shape"></path>
            </g>
        </g>
    </g>
</svg>