<?xml version="1.0" encoding="UTF-8"?>
<svg width="31px" height="58px" viewBox="0 0 31 58" version="1.1" xmlns="http://www.w3.org/2000/svg" xmlns:xlink="http://www.w3.org/1999/xlink">
    <!-- Generator: Sketch 43.1 (39012) - http://www.bohemiancoding.com/sketch -->
    <title>arrow-down</title>
    <desc>Created with Sketch.</desc>
    <defs></defs>
    <g id="Page-1"  fill-rule="evenodd">
        <g id="arrow-down"  >
            <g id="Group">
                <path d="M26.196813,13.4607088 C25.5564186,13.5196674 25.014667,13.9589415 24.8243946,14.5735212 C24.6341222,15.1881009 24.83284,15.8568253 25.3278062,16.2675998 L37.9408199,26.998369 L-11.7912007,26.998369 C-11.8408309,26.9960393 -11.890543,26.9960393 -11.9401733,26.998369 C-12.507964,27.0248821 -13.0184721,27.3524671 -13.2793493,27.857697 C-13.5402264,28.3629269 -13.5118282,28.969024 -13.2048543,29.4476242 C-12.8978805,29.9262243 -12.3589808,30.2045965 -11.7912007,30.1778562 L37.9408199,30.1778562 L25.3278062,40.8837857 C24.8120803,41.2195442 24.5364337,41.8229712 24.6202032,42.4328225 C24.7039726,43.0426739 25.1321026,43.5493443 25.7192412,43.7334789 C26.3063799,43.9176136 26.9470037,43.7461189 27.3637651,43.2932408 L43.254176,29.7804203 C43.6047297,29.4783912 43.8063271,29.0385298 43.8063271,28.5756927 C43.8063271,28.1128557 43.6047297,27.6729943 43.254176,27.3709652 L27.3637651,13.8581447 C27.0440748,13.5739833 26.6234032,13.4307127 26.196813,13.4607088 L26.196813,13.4607088 Z" id="Shape" transform="translate(15.174767, 28.631560) rotate(90.000000) translate(-15.174767, -28.631560) "></path>
            </g>
        </g>
    </g>
</svg>