<svg xmlns="http://www.w3.org/2000/svg" xmlns:xlink="http://www.w3.org/1999/xlink" version="1.0" x="0px" y="0px" viewBox="0 0 100 100" enable-background="new 0 0 100 100" xml:space="preserve"><g><g><path fill="none" d="M47.867,28.805c1.092,0.526,2.431-0.137,3.277-1.023c0.182-0.191,0.465-0.245,0.703-0.141    c0.24,0.107,0.389,0.354,0.367,0.616c-0.115,1.511,0.475,2.952,0.92,3.095c0.189,0.061,0.586-0.228,1.053-1.004    c0.16-0.268,0.492-0.375,0.776-0.253c0.286,0.12,0.438,0.435,0.358,0.733c-0.11,0.415-0.038,0.783,0.21,1.07    c0.306,0.353,0.841,0.531,1.385,0.463c0.229-0.026,0.448-0.127,0.666-0.256c0.743-0.955,1.492-1.89,2.244-2.797    c0.046-0.971,0.062-1.918,0.021-2.814c-0.207-4.4-1.492-7.338-3.531-8.059c-0.119-0.041-0.244-0.076-0.377-0.104    c-1.428,2.902-2.494,3.256-3.188,3.256c-0.198,0-0.394-0.036-0.579-0.105c-0.415-0.159-0.915-0.516-1.281-1.293    c-1.644,1.312-3.295,3.199-4.854,5.5c0.19,0.357,0.332,0.744,0.468,1.121C46.814,27.677,47.081,28.425,47.867,28.805z     M53.279,26.044l1.765-0.843l-0.843-1.764c-0.111-0.232-0.014-0.512,0.221-0.623c0.234-0.11,0.512-0.013,0.622,0.221l0.843,1.764    l1.764-0.843c0.234-0.111,0.513-0.013,0.623,0.221c0.11,0.232,0.013,0.511-0.221,0.622l-1.764,0.844l0.844,1.763    c0.111,0.231,0.014,0.512-0.22,0.622c-0.065,0.031-0.134,0.046-0.201,0.046c-0.175,0-0.342-0.099-0.422-0.265l-0.843-1.765    l-1.766,0.842c-0.063,0.031-0.133,0.046-0.199,0.046c-0.174,0-0.342-0.098-0.422-0.266C52.949,26.434,53.047,26.155,53.279,26.044    z"></path><path fill="none" d="M42.529,42.862h3.419c-0.189-0.346-0.3-0.727-0.312-1.137c-0.079-2.459,3.144-5.431,4.202-6.406    c0.254-0.233,0.646-0.217,0.88,0.035c0.233,0.254,0.218,0.646-0.036,0.879c-3.191,2.943-3.83,4.59-3.802,5.451    c0.015,0.416,0.183,0.741,0.534,1.025c0.085,0.066,0.164,0.115,0.242,0.15h0.799c0.096-0.024,0.195-0.055,0.309-0.09    c0.348-0.108,0.74-0.23,1.188-0.248c0.135-0.004,0.26,0,0.377,0.011c1.725-2.8,3.647-5.634,5.737-8.438    c0.123-0.167,0.25-0.33,0.375-0.496c-0.729-0.06-1.396-0.361-1.851-0.884c-0.138-0.159-0.251-0.333-0.339-0.515    c-0.586,0.456-1.105,0.461-1.495,0.337c-1.038-0.33-1.577-1.733-1.743-3.05c-1.096,0.705-2.463,1.029-3.688,0.438    c-1.245-0.601-1.662-1.762-1.995-2.694c-0.036-0.101-0.071-0.197-0.106-0.295c-1.752,2.806-3.354,6.127-4.664,9.732    c1.327,1.701,2.082,3.863,1.971,6.184C42.529,42.856,42.529,42.858,42.529,42.862z"></path><path fill="#000000" d="M58.273,24.177c-0.11-0.231-0.389-0.332-0.623-0.221l-1.764,0.843l-0.843-1.764    c-0.11-0.232-0.39-0.331-0.622-0.221c-0.232,0.111-0.332,0.391-0.221,0.623l0.843,1.764l-1.765,0.843    c-0.231,0.11-0.33,0.39-0.219,0.622c0.079,0.168,0.247,0.266,0.422,0.266c0.066,0,0.136-0.015,0.199-0.046l1.766-0.842    l0.843,1.765c0.08,0.166,0.247,0.265,0.422,0.265c0.067,0,0.136-0.015,0.201-0.046c0.231-0.11,0.331-0.391,0.22-0.622    l-0.844-1.763l1.764-0.844C58.285,24.688,58.383,24.41,58.273,24.177z"></path><path fill="#000000" d="M39.16,41.102c-0.004-0.013-0.01-0.023-0.012-0.037c-0.047,0.166-0.094,0.332-0.138,0.498    C39.14,41.451,39.204,41.278,39.16,41.102z"></path><path fill="#000000" d="M78.57,26.907c-0.479-1.432-2.174-6.098-3.752-6.098c-0.099,0-0.194,0.016-0.285,0.045    c-0.873,0.295-0.819,1.615-0.676,2.734c0.164,1.262,0.562,2.869,1.121,4.527c0.479,1.431,2.174,6.098,3.752,6.098    c0.099,0,0.193-0.016,0.285-0.047C79.437,34.026,80.648,33.083,78.57,26.907z M78.523,32.708    c-0.519-0.631-1.461-2.299-2.366-4.987c-0.904-2.688-1.162-4.589-1.134-5.405c0.521,0.633,1.463,2.301,2.367,4.99    C78.295,29.993,78.553,31.891,78.523,32.708z"></path><path fill="#000000" d="M72.721,33.713c-0.48-1.432-2.177-6.1-3.753-6.1c-0.098,0-0.193,0.016-0.285,0.047    c-0.422,0.142-1.635,1.085,0.445,7.263c0.48,1.431,2.174,6.099,3.753,6.099c0.099,0,0.194-0.017,0.286-0.047    C73.588,40.833,74.8,39.889,72.721,33.713z M72.673,39.514c-0.518-0.632-1.461-2.299-2.365-4.988    c-0.904-2.688-1.162-4.586-1.134-5.403c0.521,0.633,1.462,2.301,2.367,4.987C72.447,36.798,72.705,38.698,72.673,39.514z"></path><path fill="#000000" d="M48.455,42.862h-0.799C47.894,42.973,48.126,42.952,48.455,42.862z"></path><circle fill="#000000" cx="32.495" cy="79.835" r="0.929"></circle><path fill="#000000" d="M61.111,54.19c0.008-0.191-0.004-0.448-0.032-0.758c-0.04,0.18-0.088,0.355-0.138,0.53    C61.001,54.047,61.06,54.128,61.111,54.19z"></path><g><path fill="#000000" d="M35.297,36.856c-0.244-0.086-0.511,0.041-0.596,0.283c-0.086,0.243,0.041,0.51,0.284,0.596     c0.354,0.127,0.688,0.296,1,0.49c0.641,0.398,1.18,0.932,1.586,1.561c0.104,0.16,0.201,0.326,0.287,0.5     c0.166,0.33,0.304,0.678,0.395,1.045c0.055,0.211,0.244,0.354,0.452,0.354c0.038,0,0.075-0.006,0.114-0.015     c0.074-0.021,0.138-0.06,0.19-0.106c0.044-0.166,0.091-0.332,0.138-0.498c-0.232-0.896-0.664-1.705-1.239-2.392     C37.224,37.858,36.333,37.223,35.297,36.856z"></path><path fill="#000000" d="M16.106,41.397c0.028,0,0.057-0.004,0.086-0.008c0.254-0.049,0.421-0.293,0.373-0.546     c-0.069-0.37-0.09-0.741-0.079-1.11c0.03-0.946,0.322-1.863,0.846-2.655c0.203-0.308,0.436-0.601,0.706-0.863     c0.185-0.179,0.19-0.475,0.01-0.659c-0.179-0.186-0.475-0.188-0.66-0.011c-1.466,1.423-2.116,3.468-1.74,5.472     C15.689,41.241,15.886,41.397,16.106,41.397z"></path></g></g><path fill="#000000" d="M79.693,42.862H79.54c8.7-13.328,13.896-27.498,8.579-31.461c-0.846-0.631-1.897-0.949-3.124-0.949   c-5.472,0-14.478,6.566-23.271,16.631c-0.006-0.225,0-0.456-0.011-0.675c-0.246-5.275-1.94-8.73-4.772-9.731   c-0.472-0.166-0.985-0.26-1.529-0.277c-0.403-0.002-0.725,0.205-0.881,0.549c-0.895,1.972-1.545,2.634-1.743,2.756   c-0.114-0.102-0.332-0.43-0.455-1.189c-0.051-0.312-0.256-0.576-0.545-0.705c-0.288-0.127-0.622-0.101-0.888,0.072   c-4.314,2.812-8.762,9.372-11.784,17.312c-1.498-1.231-3.382-2.018-5.462-2.117c-1.771-0.088-3.44,0.331-4.887,1.113   c-1.752-2.183-4.402-3.479-7.277-3.479c-0.584,0-1.167,0.071-1.741,0.183l3.308-3.154l0,0h0.002   c0.021-0.021,0.028-0.047,0.047-0.067c0.033-0.044,0.071-0.086,0.094-0.135c0.008-0.019,0.007-0.037,0.013-0.056   c0.019-0.059,0.036-0.117,0.038-0.179c0.001-0.049-0.014-0.097-0.023-0.146c-0.008-0.03-0.006-0.062-0.017-0.09   c-0.026-0.068-0.067-0.133-0.12-0.19c-0.004-0.005-0.006-0.013-0.012-0.019l0,0c-1.449-1.515-3.86-1.57-5.377-0.125   c-0.662,0.631-1.064,1.461-1.155,2.361l-1.202-2.328c-0.158-0.308-0.532-0.428-0.838-0.27c-0.307,0.158-0.426,0.533-0.269,0.839   l1.174,2.274c-0.761-0.434-1.672-0.609-2.597-0.431h-0.001c-2.056,0.398-3.406,2.396-3.01,4.454   c0.014,0.075,0.04,0.145,0.078,0.205c0.11,0.184,0.312,0.301,0.532,0.301c0.039,0,0.079-0.004,0.118-0.012l4.586-0.889   c-2.591,2.434-3.602,6.185-2.513,9.621h-0.141c-0.516,0-0.934,0.418-0.934,0.935v39.217c0,3.604,2.933,6.537,6.536,6.537h56.025   c3.604,0,6.536-2.933,6.536-6.537V43.794C80.626,43.28,80.208,42.862,79.693,42.862z M60.578,31.341   c0.361-0.442,0.724-0.88,1.086-1.313c8.814-10.514,18.138-17.709,23.331-17.709c0.815,0,1.491,0.195,2.009,0.58   c3.611,2.691,0.427,14.983-9.686,29.963h-9.51c-0.152-0.549-0.332-1.144-0.557-1.81c-0.482-1.431-2.175-6.099-3.755-6.099   c-0.099,0-0.193,0.016-0.284,0.046c-0.872,0.294-0.818,1.616-0.674,2.733c0.163,1.263,0.56,2.871,1.117,4.528   c0.056,0.161,0.127,0.368,0.209,0.601h-1.57c-0.686-0.801-1.7-1.31-2.834-1.31c-0.018,0-0.034,0.003-0.053,0.003   c-0.467,0.006-0.911,0.1-1.322,0.264c-0.322,0.127-0.621,0.3-0.893,0.508c-0.002,0.001-0.006,0.001-0.006,0.001   c-0.002,0.002-0.002,0.004-0.002,0.006c-0.205,0.156-0.393,0.333-0.56,0.528h-0.06h-0.103h-4.146   c1.237-1.977,2.576-3.969,4.004-5.955c0.115-0.161,0.232-0.323,0.351-0.484c0.293-0.404,0.588-0.808,0.89-1.211   c0.646-0.867,1.297-1.717,1.955-2.55c0.254-0.322,0.51-0.642,0.766-0.958C60.382,31.583,60.48,31.462,60.578,31.341z    M66.506,42.862h-1.313c-0.117-0.315-0.236-0.646-0.354-0.996c-0.905-2.689-1.162-4.588-1.133-5.405   c0.519,0.633,1.463,2.301,2.367,4.989C66.241,41.952,66.38,42.417,66.506,42.862z M35.137,44.729h1.236h1.896h2.026h0.976h0.975   h6.767h1.087h1.082h0.344h2.451h0.938h0.861c-0.028,0.183-0.047,0.369-0.047,0.559v0.438v0.448v3.163   c0,0.619-0.093,1.217-0.254,1.785c-0.287,1.006-0.809,1.912-1.503,2.658c-0.938,1.01-2.19,1.723-3.604,1.98   c-0.382,0.069-0.774,0.111-1.177,0.111h-3.607h-1.006h-1h-1.856c-1.604,0-3.071-0.582-4.209-1.543   c-0.854-0.721-1.517-1.657-1.911-2.723c-0.021-0.058-0.043-0.113-0.063-0.172c-0.099-0.289-0.179-0.588-0.235-0.896   c-0.058-0.308-0.09-0.621-0.104-0.94c-0.004-0.089-0.014-0.175-0.014-0.264v-4.05C35.185,45.098,35.165,44.912,35.137,44.729z    M50.892,20.19c0.365,0.777,0.865,1.134,1.28,1.293c0.187,0.069,0.381,0.105,0.579,0.105c0.693,0,1.762-0.354,3.189-3.256   c0.132,0.025,0.257,0.062,0.377,0.104c2.037,0.721,3.324,3.657,3.531,8.059c0.041,0.896,0.023,1.845-0.021,2.814   c-0.752,0.907-1.501,1.842-2.244,2.797c-0.218,0.129-0.438,0.229-0.666,0.256c-0.544,0.068-1.079-0.11-1.385-0.463   c-0.248-0.287-0.32-0.655-0.21-1.07c0.079-0.301-0.072-0.613-0.358-0.732c-0.283-0.123-0.615-0.016-0.775,0.252   c-0.467,0.776-0.863,1.063-1.054,1.004c-0.446-0.143-1.034-1.584-0.92-3.095c0.021-0.263-0.127-0.509-0.366-0.616   c-0.24-0.104-0.522-0.052-0.705,0.141c-0.847,0.888-2.186,1.551-3.276,1.023c-0.786-0.38-1.054-1.128-1.363-1.992   c-0.136-0.379-0.276-0.765-0.468-1.121C47.596,23.391,49.248,21.501,50.892,20.19z M45.224,26.938   c0.035,0.097,0.07,0.193,0.106,0.293c0.333,0.935,0.75,2.096,1.995,2.695c1.226,0.592,2.593,0.268,3.688-0.438   c0.166,1.314,0.705,2.719,1.743,3.049c0.39,0.124,0.909,0.119,1.495-0.337c0.088,0.182,0.201,0.354,0.339,0.515   c0.455,0.521,1.121,0.824,1.851,0.883c-0.125,0.166-0.252,0.33-0.375,0.497c-2.09,2.806-4.014,5.64-5.737,8.438   c-0.117-0.01-0.242-0.016-0.377-0.012c-0.448,0.019-0.843,0.141-1.188,0.248c-0.113,0.035-0.213,0.065-0.309,0.092   c-0.328,0.09-0.562,0.111-0.799,0c-0.078-0.036-0.157-0.084-0.242-0.151c-0.352-0.284-0.521-0.61-0.534-1.024   c-0.028-0.862,0.608-2.509,3.802-5.451c0.254-0.232,0.27-0.627,0.036-0.879c-0.233-0.254-0.626-0.271-0.88-0.037   c-1.061,0.978-4.282,3.947-4.202,6.406c0.013,0.411,0.123,0.791,0.312,1.137h-3.418c0-0.002,0-0.006,0-0.008   c0.111-2.32-0.643-4.482-1.971-6.185C41.869,33.063,43.472,29.742,45.224,26.938z M33.195,34.932c0.123,0,0.244,0.004,0.369,0.01   c1.903,0.092,3.604,0.897,4.865,2.142c0.543,0.534,1.004,1.147,1.363,1.823c0.611,1.148,0.938,2.466,0.871,3.857   c-0.001,0.032-0.008,0.064-0.01,0.098h-1.976h-1.911h-2.486c-0.686-0.799-1.698-1.309-2.834-1.309c-0.26,0-0.514,0.027-0.758,0.078   c0.347-1.994,0.047-4.036-0.896-5.865c-0.001-0.004-0.004-0.008-0.006-0.011C30.81,35.229,31.969,34.932,33.195,34.932z    M29.582,50.997v-1.01v-1.062v-3.638c0-0.195,0.039-0.381,0.095-0.558c0.119-0.379,0.351-0.703,0.662-0.936s0.692-0.375,1.11-0.375   c0.416,0,0.8,0.143,1.109,0.375c0.312,0.232,0.543,0.557,0.662,0.936c0.057,0.177,0.096,0.361,0.096,0.558v4.05   c0,0.178,0.017,0.352,0.025,0.525c0.021,0.314,0.057,0.627,0.109,0.933c0.055,0.313,0.123,0.622,0.213,0.923   c0.396,1.34,1.115,2.54,2.072,3.512c0.612,0.623,1.324,1.148,2.106,1.558c1.161,0.606,2.478,0.955,3.876,0.955h1.188h0.986h0.987   h3.903h0.404c0.795,0,1.561-0.119,2.289-0.325c3.43-0.975,5.967-4.07,6.1-7.775c0.004-0.103,0.015-0.201,0.015-0.304V47.55v-0.975   v-1.288c0-0.176,0.033-0.342,0.078-0.502c0.006-0.02,0.011-0.037,0.019-0.057H57.67c0.062-0.164,0.187-0.414,0.431-0.713   c0.076-0.08,0.157-0.154,0.246-0.222c0.008-0.005,0.014-0.012,0.021-0.017c0.115-0.084,0.238-0.158,0.374-0.215   c0.062-0.024,0.127-0.041,0.19-0.06c0.168-0.05,0.342-0.085,0.525-0.085c0.418,0,0.8,0.143,1.111,0.375   c0.31,0.232,0.543,0.557,0.662,0.936c0.056,0.177,0.094,0.361,0.094,0.558v3.634v2.284c0,0.009-0.002,0.019-0.002,0.028   c-0.002,0.756-0.09,1.49-0.248,2.199c0.029,0.309,0.039,0.564,0.031,0.758c-0.052-0.062-0.108-0.145-0.168-0.229   c-0.068,0.241-0.146,0.477-0.229,0.71c-0.074,0.21-0.149,0.419-0.239,0.622c-1.583,3.633-5.206,6.182-9.415,6.182h-3.483h-3.426   h-0.373h-0.965h-0.962h-1.421H39.85c-0.772,0-1.522-0.094-2.247-0.256c-4.586-1.029-8.023-5.125-8.023-10.016v-0.207H29.582z    M18.104,28.235c0.123-0.219,0.268-0.424,0.453-0.603c0.001,0,0.001,0,0.002-0.001c0.188-0.18,0.403-0.314,0.627-0.425   c0.754-0.377,1.646-0.356,2.381,0.055c0.039,0.021,0.078,0.04,0.115,0.063l-3.577,3.41c-0.021-0.036-0.039-0.075-0.058-0.112   c-0.187-0.37-0.292-0.776-0.281-1.202C17.776,28.996,17.9,28.595,18.104,28.235z M10.988,32.772   c0.003-0.045,0.011-0.088,0.015-0.131c0.093-0.839,0.592-1.576,1.334-1.974c0.221-0.118,0.454-0.216,0.711-0.265   c0.257-0.051,0.509-0.049,0.756-0.021c0.84,0.09,1.58,0.592,1.977,1.335c0.021,0.039,0.044,0.076,0.062,0.115L10.988,32.772z    M14.38,37.778c0.606-1.901,1.917-3.452,3.689-4.368c1.071-0.554,2.223-0.833,3.418-0.833c2.248,0,4.324,0.992,5.726,2.666   c0.2,0.238,0.386,0.492,0.558,0.758c0.129,0.201,0.252,0.406,0.363,0.622c0.036,0.067,0.062,0.14,0.096,0.209   c0.824,1.724,0.968,3.661,0.385,5.487c-0.061,0.187-0.131,0.365-0.203,0.543H25.75h-0.938h-0.934h-9.298   C13.918,41.245,13.842,39.463,14.38,37.778z M78.759,83.012c0,2.575-2.095,4.67-4.669,4.67H18.065c-2.574,0-4.668-2.095-4.668-4.67   v-2.238h15.25c0.517,0,0.935-0.416,0.935-0.934c0-0.516-0.418-0.934-0.935-0.934h-15.25v-3.734h9.647   c0.516,0,0.936-0.419,0.936-0.936c0-0.516-0.42-0.934-0.936-0.934h-9.647v-3.734h9.647c0.516,0,0.936-0.418,0.936-0.935   c0-0.516-0.42-0.934-0.936-0.934h-9.647V44.729h0.026h1.1h1.152h8.484h0.974h0.979h1.203h0.444   c-0.028,0.182-0.048,0.367-0.048,0.558v0.403v1.314v0.453v1.297v1.189v1.26c0,6.693,5.446,12.138,12.141,12.138h0.104H41.5h0.954   h0.952h1.021h6.63c6.693,0,12.14-5.444,12.14-12.138v-5.918c0-0.189-0.02-0.376-0.048-0.559h1.453h0.686h0.688h0.986h0.639h0.647   h7.778h1.138h1.127h0.468v38.285H78.759z"></path></g></svg>