<?xml version="1.0" encoding="UTF-8" standalone="no"?>
<!-- Created with Inkscape (http://www.inkscape.org/) frederick allen  https://thenounproject.com/term/checkbox/333374/-->

<svg
   xmlns:dc="http://purl.org/dc/elements/1.1/"
   xmlns:cc="http://creativecommons.org/ns#"
   xmlns:rdf="http://www.w3.org/1999/02/22-rdf-syntax-ns#"
   xmlns:svg="http://www.w3.org/2000/svg"
   xmlns="http://www.w3.org/2000/svg"
   xmlns:sodipodi="http://sodipodi.sourceforge.net/DTD/sodipodi-0.dtd"
   xmlns:inkscape="http://www.inkscape.org/namespaces/inkscape"
   width="24.902079mm"
   height="24.902079mm"
   viewBox="0 0 88.235712 88.235711"
   id="svg2"
   version="1.1"
   inkscape:version="0.91 r13725"
   sodipodi:docname="checkbox-checked.svg">
  <defs
     id="defs4" />
  <sodipodi:namedview
     id="base"
     pagecolor="#ffffff"
     bordercolor="#666666"
     borderopacity="1.0"
     inkscape:pageopacity="0.0"
     inkscape:pageshadow="2"
     inkscape:zoom="5.6"
     inkscape:cx="31.146909"
     inkscape:cy="51.649179"
     inkscape:document-units="px"
     inkscape:current-layer="g4735"
     showgrid="false"
     inkscape:window-width="1448"
     inkscape:window-height="838"
     inkscape:window-x="378"
     inkscape:window-y="150"
     inkscape:window-maximized="0"
     fit-margin-top="0"
     fit-margin-left="0"
     fit-margin-right="0"
     fit-margin-bottom="0" />
  <metadata
     id="metadata7">
    <rdf:RDF>
      <cc:Work
         rdf:about="">
        <dc:format>image/svg+xml</dc:format>
        <dc:type
           rdf:resource="http://purl.org/dc/dcmitype/StillImage" />
        <dc:title></dc:title>
      </cc:Work>
    </rdf:RDF>
  </metadata>
  <g
     inkscape:label="Layer 1"
     inkscape:groupmode="layer"
     id="layer1"
     transform="translate(-138.02785,-384.60034)">
    <g
       id="g4735"
       transform="translate(160.85642,483.1432)">
      <g
         id="g4713"
         transform="matrix(1.303334,0,0,1.303334,-37.29558,-113.00987)">
        <g
           id="g4715">
          <g
             id="g4717">
            <path
               id="path4719"
               d="m 69.3,78.8 -48.6,0 c -5.3,0 -9.6,-4.3 -9.6,-9.6 l 0,-48.5 c 0,-5.3 4.3,-9.6 9.6,-9.6 l 48.5,0 c 5.3,0 9.6,4.3 9.6,9.6 l 0,48.5 c 0,5.3 -4.3,9.6 -9.5,9.6 z M 20.7,19.6 c -0.6,0 -1.1,0.5 -1.1,1.1 l 0,48.5 c 0,0.6 0.5,1.1 1.1,1.1 l 48.5,0 c 0.6,0 1.1,-0.5 1.1,-1.1 l 0,-48.5 c 0,-0.6 -0.5,-1.1 -1.1,-1.1 l -48.5,0 z"
               inkscape:connector-curvature="0" />
          </g>
        </g>
        <g
           id="g4721">
          <path
             id="path4723"
             d="m 41.3,60.3 c -1,0 -2,-0.4 -2.8,-1 L 27.4,49.8 c -1.8,-1.5 -2,-4.2 -0.5,-6 1.5,-1.8 4.2,-2 6,-0.5 L 40.7,50 56.5,31.1 c 1.5,-1.8 4.2,-2 6,-0.5 1.8,1.5 2,4.2 0.5,6 L 44.5,58.8 c -0.7,0.9 -1.8,1.4 -2.9,1.5 -0.1,0 -0.2,0 -0.3,0 z"
             inkscape:connector-curvature="0" />
        </g>
      </g>
    </g>
  </g>
</svg>
