<?xml version="1.0" encoding="UTF-8"?>
<svg width="77px" height="61px" viewBox="0 0 77 61" version="1.1" xmlns="http://www.w3.org/2000/svg" xmlns:xlink="http://www.w3.org/1999/xlink">
    <!-- Generator: Sketch 43.1 (39012) - http://www.bohemiancoding.com/sketch -->
    <title>chicken-dinner</title>
    <desc>Created with Sketch.</desc>
    <defs></defs> 
    <g id="chicken-dinner">
        <g id="Group">
            <path d="M8.91739476,7.57546911 C7.71629503,7.57546911 6.51679126,8.04338673 5.61642209,8.97537757 C5.61465874,8.97537409 5.6128954,8.97537409 5.61113205,8.97537757 C5.10354571,9.5028833 4.90741812,10.2190389 4.68389249,10.9113043 C4.01501167,11.14746 3.31712165,11.3501144 2.81351803,11.8713043 C1.01259656,13.735286 1.01259656,16.7597254 2.81351803,18.6237071 C2.81528138,18.6237106 2.81704472,18.6237106 2.81880807,18.6237071 C4.08349237,19.9280549 5.91370408,20.0832037 7.56097584,19.5139588 L10.8089633,21.9329062 C11.1998428,22.2232036 11.7140328,22.2803672 12.1578404,22.0828636 C12.6016481,21.88536 12.9076474,21.4631953 12.9605699,20.9753967 C13.0134925,20.4875982 12.805298,20.0082752 12.4144123,19.7179863 L8.73724523,16.9827002 C8.27433679,16.6400364 7.64856129,16.6290428 7.1741843,16.9552403 C6.39951501,17.4857666 5.41692162,17.3827918 4.75276466,16.6971167 C3.98122707,15.8936384 3.97837479,14.5914874 4.75276466,13.7902059 C5.05145326,13.4810069 5.4347021,13.2876888 5.84955659,13.2270023 C6.44890142,13.1391039 6.91809065,12.6597292 6.99933349,12.0522654 C7.05984877,11.608238 7.25875946,11.2040275 7.55567712,10.8940046 C8.33167706,10.0908009 9.50331781,10.0908009 10.2791121,10.8940046 C10.9428524,11.5810526 11.0499607,12.6665446 10.5281425,13.4843021 C10.2124426,13.9816026 10.246593,14.6276043 10.6129187,15.0879634 L13.4847117,18.7135011 C13.7885086,19.0967237 14.2712066,19.2867813 14.7509781,19.212081 C15.2307495,19.1373808 15.6347057,18.8092715 15.8106803,18.3513488 C15.9866549,17.893426 15.9079132,17.3752591 15.6041163,16.9920366 L13.0873236,13.8223341 C13.635093,12.1401373 13.4829603,10.2830206 12.2183674,8.97400458 C11.3180067,8.04173913 10.1184945,7.57409611 8.91739503,7.57409611 L8.91739476,7.57546911 Z" id="Shape" fill-rule="nonzero"></path>
            <path d="M48.8363793,40.7632952 C45.8556975,40.7632952 43.4107036,43.2382609 43.4107036,46.255286 C43.4107036,49.2723112 45.8556975,51.7472769 48.8363793,51.7472769 C51.8170637,51.7472769 54.2673531,49.2723112 54.2673531,46.255286 C54.2673531,43.2382609 51.8170637,40.7632952 48.8363793,40.7632952 Z M48.8363793,43.5092906 C50.3511601,43.5092906 51.5545153,44.722746 51.5545153,46.255286 C51.5545153,47.7881007 50.3511601,49.0012815 48.8363793,49.0012815 C47.3216011,49.0012815 46.1235414,47.7881007 46.1235414,46.255286 C46.1235414,44.722746 47.3216011,43.5092906 48.8363793,43.5092906 Z" id="Shape" fill-rule="nonzero"></path>
            <path d="M13.6701594,34.9442563 C13.5479187,34.9478627 13.426721,34.9681841 13.3098606,35.0046682 C7.58616237,36.7154233 3.56264894,38.8814645 1.45179199,41.6335011 C0.396363784,43.0097941 -0.153708849,44.6172998 0.0370896476,46.2300229 C0.227888958,47.8424714 1.11737776,49.3497483 2.51679298,50.6867735 C5.31562127,53.3610984 9.96686014,55.3555149 15.8213549,56.8224256 C21.6758499,58.2890618 28.7352601,59.1718993 36.2736097,59.2894279 C51.3503172,59.5255835 65.2544738,56.830389 72.0491587,51.8560183 C73.7478211,50.612357 74.9509783,49.2459497 75.5567712,47.7101144 C76.1625669,46.1742792 76.0757398,44.4778032 75.3607144,42.9905721 C73.9306908,40.0161098 70.419009,37.7182609 65.1557808,35.8251716 C64.6928088,35.6324622 64.1626156,35.7134985 63.7764975,36.0359854 C63.3903795,36.3584722 63.211097,36.8699922 63.3100989,37.3666904 C63.4091008,37.8633887 63.7702953,38.2645312 64.2497364,38.4102517 C69.1864013,40.1858124 72.0681215,42.4128146 72.9233978,44.1919451 C73.3510388,45.081373 73.3793391,45.8227918 73.0346785,46.6965675 C72.690007,47.5703432 71.880838,48.5896568 70.4596012,49.6301144 C64.7746162,53.7922197 51.0267001,56.7729977 36.3159951,56.5434325 C28.9606453,56.4281007 22.0780482,55.5611899 16.4730692,54.1568879 C10.8680906,52.7525858 6.54164086,50.7548741 4.37656757,48.6863158 C3.29403242,47.6518993 2.82532674,46.7190847 2.72873073,45.9027002 C2.63213471,45.0863158 2.86535195,44.2724027 3.5976866,43.3176201 C5.06235371,41.4080549 8.64208539,39.2626087 14.078142,37.6380778 C14.7340518,37.4472933 15.1478266,36.7929804 15.0443608,36.1101709 C14.940895,35.4273614 14.3524041,34.9286566 13.6701567,34.9456293 L13.6701594,34.9442563 Z" id="Shape" fill-rule="nonzero"></path>
            <path d="M37.9956242,14.9981693 C29.1809332,14.9981693 24.0711376,18.3449886 24.0711376,18.3449886 C23.6573751,18.610419 23.4171249,19.0810295 23.4425923,19.576205 C23.4680597,20.0713804 23.7552884,20.5141949 24.1940431,20.7347011 C24.6327979,20.9552073 25.1549178,20.9191495 25.560019,20.6403661 C25.560019,20.6403661 29.8387909,17.7441648 37.9956242,17.7441648 C41.5190363,17.7441648 45.0544337,18.2450343 48.3595139,19.4120824 C48.8219863,19.5960661 49.346826,19.5093802 49.7275316,19.1861316 C50.1082373,18.8628831 50.2838748,18.3548097 50.1853385,17.8618159 C50.0868022,17.3688222 49.7298635,16.9698145 49.254962,16.8217849 C45.6110646,15.5350114 41.7729308,14.9981693 37.9956242,14.9981693 L37.9956242,14.9981693 Z M58.0451914,21.9650343 C57.4915516,21.9692909 56.9960247,22.3136836 56.7932228,22.835156 C56.5904209,23.3566285 56.721046,23.9505222 57.1232524,24.3356522 C59.7201951,26.9144165 61.6771523,30.3669565 62.6231052,33.914508 C63.1390138,35.849611 62.980348,40.1124943 62.7714703,42.4957437 C62.744342,42.8049428 62.1368399,43.5109382 61.8071406,43.5897483 L55.6343738,45.0646224 C54.6900756,45.2897941 53.6128701,45.5443478 52.6195211,45.7244851 C52.133898,45.8014942 51.7274229,46.1383884 51.5570346,46.605094 C51.3866464,47.0717996 51.4790056,47.595291 51.7984528,47.9734498 C52.1179,48.3516085 52.6144511,48.525264 53.0963892,48.4273684 C54.1924544,48.2296568 55.3115542,47.9621968 56.2595988,47.7356522 L62.4323656,46.260778 C64.1017185,45.8617849 65.3192049,44.5052632 65.4737118,42.7423341 C65.6914985,40.2574828 66.0078615,36.0739588 65.2405706,33.195881 C64.1664306,29.1675057 61.9904172,25.3222883 59.0201175,22.3728146 C58.7628,22.109319 58.4112079,21.9622593 58.0451914,21.9650343 L58.0451914,21.9650343 Z M14.8941156,31.8228833 C14.3001392,31.8376538 13.7847791,32.2419604 13.6224729,32.8205034 C13.6224729,32.8205034 12.1562611,37.6954691 11.8262774,40.5650343 C11.7239845,41.4550114 11.7234989,42.5619222 11.7415013,43.5524027 C11.7764209,45.4669108 13.1557856,46.9700686 14.9418022,47.3281465 C23.0201517,48.9480092 31.9576611,50.132357 39.3255523,49.9719908 C39.8103115,49.9616826 40.2527887,49.6903001 40.4862152,49.2601267 C40.7196417,48.8299533 40.7085313,48.3063855 40.4570714,47.8867547 C40.2056115,47.467124 39.7520299,47.215224 39.2672805,47.2259954 C32.2367578,47.3797712 23.4211444,46.2297483 15.4716669,44.6356979 C15.0188641,44.5450801 14.4614815,43.889611 14.4543527,43.4985812 C14.4372889,42.5597254 14.4489812,41.481373 14.5179334,40.881373 C14.775379,38.6425629 16.224054,33.6033867 16.2240543,33.6033867 C16.3539364,33.1806942 16.2745378,32.7205456 16.0107926,32.3674438 C15.7470473,32.0143421 15.3313066,31.8115991 14.8941278,31.8228833 L14.8941156,31.8228833 Z" id="Shape"></path>
            <path d="M31.4996499,9.077254 C29.2807439,9.27771167 27.3887783,10.2920824 26.2382285,11.9303432 C25.0876787,13.5688787 24.7022088,15.7316247 25.0672564,18.0767048 C25.1842705,18.8261049 25.8793023,19.3375957 26.6196535,19.2191515 C27.3600046,19.1007073 27.8653193,18.3971804 27.7483052,17.6477803 C27.4673095,15.8425629 27.78756,14.4654462 28.4530056,13.5180778 C29.1184511,12.5704348 30.1554686,11.9550572 31.738084,11.81254 C34.9032468,11.5269565 39.4632153,13.5935927 42.8119721,17.2292906 C43.135764,17.6139702 43.6421365,17.7875282 44.1302094,17.6811134 C44.6182824,17.5746986 45.0091606,17.2055126 45.147781,16.720013 C45.2864015,16.2345135 45.1503566,15.7111796 44.7936161,15.3576201 C40.9841705,11.2216018 35.9374023,8.67688787 31.4996499,9.077254 L31.4996499,9.077254 Z" id="Shape" fill-rule="nonzero"></path>
            <path d="M23.5677787,0.15798627 C22.3666942,0.15798627 21.1671622,0.620686499 20.266806,1.55240275 C19.7601228,2.07881007 19.5579985,2.79221968 19.334268,3.48311213 C18.6666245,3.71926773 17.9724709,3.92823799 17.469192,4.44860412 C15.6683373,6.31231121 15.6683373,9.33153318 17.469192,11.1955149 C18.7335307,12.4984897 20.5642389,12.6599542 22.2113598,12.0912586 L25.4593483,14.504714 C25.8502742,14.7950573 26.3645359,14.8522249 26.8083958,14.65468 C27.2522557,14.4571352 27.5582725,14.0348934 27.6111606,13.5470256 C27.6640486,13.0591578 27.4557721,12.579792 27.0647949,12.2895195 L23.38763,9.5597254 C22.9258774,9.21538792 22.3000848,9.20219516 21.8245688,9.52677346 C21.0521853,10.0559268 20.0724955,9.95487414 19.4084473,9.27414188 C18.6325646,8.47093822 18.6325646,7.16494279 19.4084473,6.36173913 C19.7069222,6.05281465 20.0847489,5.85949657 20.4999405,5.79881007 C21.0975671,5.71151384 21.5662504,5.23489491 21.6497177,4.62956522 C21.7104744,4.18334096 21.9073722,3.77610984 22.2060616,3.46553776 C22.9820879,2.6626087 24.1535455,2.6623341 24.9294958,3.46553776 C25.5927277,4.15203661 25.7062057,5.2383524 25.1838244,6.05610984 C24.8641174,6.55345658 24.8961787,7.20240944 25.2633105,7.66498856 L28.1351044,11.2853089 C28.6033103,11.8777196 29.4573111,11.9737684 30.0425685,11.4998398 C30.6278259,11.0259113 30.7227148,10.1614725 30.2545089,9.56906178 L27.7324161,6.39414188 C28.2812097,4.71139588 28.1336991,2.85482838 26.8687598,1.54553776 C25.9687786,0.616018307 24.7672328,0.151121281 23.5677869,0.151121281 L23.5677787,0.15798627 Z" id="Shape" fill-rule="nonzero"></path>
            <path d="M42.0013002,42.3348284 C40.6886611,42.6931808 39.5058882,43.541968 38.7586099,44.8018307 C37.2638607,47.3218307 38.0162717,50.624714 40.4488354,52.2300229 C42.8812743,53.8353318 46.1698089,53.1985355 47.8455586,50.7979863 C48.1498445,50.3985023 48.2132409,49.8623032 48.0106789,49.4014193 C47.808117,48.9405354 47.3722138,48.6291794 46.8753393,48.5904715 C46.3784648,48.5517635 45.9006273,48.7919365 45.6307788,49.2160183 C44.7805429,50.4338673 43.1614372,50.7438902 41.9271204,49.9291533 C40.6927358,49.1146911 40.3262694,47.496476 41.0846567,46.2179405 C41.8429437,44.939405 43.4286164,44.5063616 44.7194362,45.2255378 C45.3763479,45.5913513 46.2018496,45.3488609 46.5632461,44.6839203 C46.9246426,44.0189796 46.6850804,43.1833881 46.0281689,42.8175744 C44.7563037,42.108833 43.3139367,41.976476 42.0013002,42.3348284 L42.0013002,42.3348284 Z" id="Shape" fill-rule="nonzero"></path>
            <path d="M16.3776988,16.5642105 C15.1199282,16.7427002 13.9527237,17.1897483 12.9548603,17.958627 C10.9591603,19.4969336 10.1107748,22.0273684 10.2791121,24.689611 C10.4474491,27.3518535 11.5555191,30.2373455 13.5006071,32.9918535 C17.3907511,38.5008696 23.5274768,42.1406865 28.7868121,41.4124485 C31.4164038,41.0483295 33.4678301,39.4347826 34.3661456,37.1698856 C35.2644612,34.9052632 35.1081393,32.118627 33.9793546,29.1894737 C33.808754,28.7246735 33.4038456,28.3890754 32.9200265,28.3114763 C32.4362075,28.2338773 31.9486383,28.4263322 31.6444401,28.81498 C31.3402419,29.2036279 31.2666714,29.7280928 31.4519637,30.1870938 C32.3975884,32.6409153 32.4120099,34.7270481 31.849351,36.1456293 C31.2866949,37.5642105 30.2457899,38.4404577 28.4212138,38.6930892 C24.7719396,39.1983524 19.1147544,36.215103 15.7100862,31.3936842 C14.0077384,28.9829748 13.1135773,26.5198169 12.9866515,24.5127689 C12.859726,22.5054462 13.426606,21.0492449 14.597399,20.1469108 C15.7682112,19.2445767 17.556238,18.9625629 19.7210593,19.4711213 C21.8858817,19.9796796 24.344863,21.2790847 26.5773332,23.2951945 C27.1362703,23.800122 27.9937483,23.7508497 28.4926412,23.1851374 C28.991534,22.619425 28.9429524,21.751461 28.3841266,21.2464073 C25.8511852,18.9589931 23.0404844,17.4302975 20.3356869,16.7948741 C18.9832884,16.4771625 17.6354692,16.3859954 16.3776988,16.5642105 L16.3776988,16.5642105 Z" id="Shape" fill-rule="nonzero"></path>
            <path d="M31.8757931,25.6627918 C31.875793,26.4210774 31.2685036,27.0357894 30.5193741,27.0357895 C29.7702447,27.0357894 29.1629552,26.4210774 29.1629552,25.6627918 C29.1629552,24.9045061 29.7702447,24.2897941 30.5193741,24.2897941 C31.2685036,24.2897941 31.875793,24.9045061 31.8757931,25.6627918 L31.8757931,25.6627918 Z" id="Shape" fill-rule="nonzero"></path>
            <path d="M54.9349147,20.1708009 C54.9349146,20.9290866 54.3276252,21.5437986 53.5784958,21.5437986 C52.8293663,21.5437986 52.2220769,20.9290866 52.2220768,20.1708009 C52.2220769,19.4125152 52.8293663,18.7978032 53.5784958,18.7978032 C54.3276252,18.7978032 54.9349146,19.4125152 54.9349147,20.1708009 Z" id="Shape" fill-rule="nonzero"></path>
        </g>
    </g> 
</svg>