<?xml version="1.0" encoding="UTF-8"?>
<svg width="78px" height="41px" viewBox="0 0 78 41" version="1.1" xmlns="http://www.w3.org/2000/svg" xmlns:xlink="http://www.w3.org/1999/xlink">
    <!-- Generator: Sketch 41.2 (35397) - http://www.bohemiancoding.com/sketch -->
    <title>hamburger</title>
    <desc>Created with Sketch.</desc>
    <defs></defs>
    <g id="Page-1"  fill-rule="evenodd">
        <g id="hamburger"  >
            <g id="menu" transform="translate(11.000000, 0.000000)">
                <path d="M55.0568182,37 L1.94318182,37 C0.869897727,37 0,37.8953333 0,39 C0,40.1046667 0.869897727,41 1.94318182,41 L55.0568182,41 C56.1301023,41 57,40.1046667 57,39 C57,37.8953333 56.1301023,37 55.0568182,37 Z M55.0568182,19 L1.94318182,19 C0.869897727,19 0,19.8953333 0,21 C0,22.1046667 0.869897727,23 1.94318182,23 L55.0568182,23 C56.1301023,23 57,22.1046667 57,21 C57,19.8953333 56.1301023,19 55.0568182,19 Z M1.94318182,4 L55.0568182,4 C56.1301023,4 57,3.10466667 57,2 C57,0.895333333 56.1301023,0 55.0568182,0 L1.94318182,0 C0.869897727,0 0,0.895333333 0,2 C0,3.10466667 0.869897727,4 1.94318182,4 Z" id="Shape"></path>
            </g>
        </g>
    </g>
</svg>