<svg xmlns="http://www.w3.org/2000/svg" xmlns:xlink="http://www.w3.org/1999/xlink" version="1.0" x="0px" y="0px" viewBox="0 0 100 100" enable-background="new 0 0 100 100"  xml:space="preserve"><g><path fill="#000000" d="M45.537,34.116c-3.332,0-6.041-2.709-6.041-6.039c0-3.427,2.625-4.847,4.938-6.098   c2.221-1.197,4.138-2.234,4.138-4.72c0-2.665-2.168-4.833-4.831-4.833c-0.334,0-0.604-0.271-0.604-0.604s0.271-0.603,0.604-0.603   c3.329,0,6.04,2.71,6.04,6.04c0,3.206-2.536,4.575-4.771,5.784c-2.213,1.197-4.305,2.326-4.305,5.033   c0,2.662,2.166,4.83,4.832,4.83c0.333,0,0.604,0.271,0.604,0.604S45.87,34.116,45.537,34.116z"></path><path fill="#000000" d="M56.841,34.06c-2.58,0-4.679-2.098-4.679-4.678c0-2.657,2.009-3.742,3.781-4.701   c1.62-0.875,3.021-1.63,3.021-3.404c0-1.914-1.557-3.47-3.47-3.47c-0.334,0-0.604-0.271-0.604-0.604   c0-0.332,0.271-0.603,0.604-0.603c2.58,0,4.677,2.098,4.677,4.677c0,2.494-1.939,3.544-3.652,4.469   c-1.689,0.912-3.147,1.7-3.147,3.637c0,1.914,1.558,3.468,3.47,3.468c0.334,0,0.604,0.271,0.604,0.606   C57.446,33.79,57.173,34.06,56.841,34.06z"></path><path fill="none" d="M87.673,43.181c0.155-0.04,0.32-0.02,0.461,0.061c1.498,0.875,3.427,0.368,4.303-1.128   c0.873-1.499,0.365-3.428-1.133-4.302c-1.497-0.875-3.428-0.368-4.299,1.129c-0.17,0.288-0.537,0.387-0.828,0.219   c-0.286-0.17-0.385-0.539-0.219-0.826c0.875-1.498,0.366-3.43-1.132-4.301c-0.725-0.424-1.571-0.539-2.384-0.326   s-1.493,0.729-1.917,1.459c-0.873,1.494-0.366,3.426,1.132,4.299c0.139,0.082,0.241,0.217,0.281,0.373   c0.04,0.158,0.015,0.322-0.07,0.463l-3.189,5.25l0.062,0.722l3.227-1.325c0.261-0.107,0.558-0.089,0.801,0.055   c0.244,0.143,0.406,0.392,0.441,0.67l0.439,3.507l0.518-0.212l3.139-5.502C87.386,43.325,87.519,43.225,87.673,43.181z"></path><path fill="none" d="M81.864,56.13l3.271-5.603l-1.893,0.775c-0.259,0.108-0.558,0.089-0.801-0.054   c-0.244-0.145-0.408-0.391-0.441-0.67l-0.438-3.507l-3.271,1.341c-0.268,0.11-0.57,0.086-0.814-0.063   c-0.247-0.149-0.407-0.409-0.432-0.695l-0.15-1.729l-1.289,2.209c-1.539,2.638-4.456,4.528-8.002,5.187   c-3.385,0.629-7.029,0.072-10.487-1.537c0.511,0.961,0.929,1.986,1.207,3.079c0.123,0.485-0.17,0.978-0.653,1.103   c-0.485,0.123-0.979-0.168-1.103-0.654c-1.548-6.068-7.823-10.107-13.981-9.003c-6.248,1.116-10.729,7.147-9.986,13.442   c0.001,0.011,0.004,0.021,0.006,0.033h46.777C80.282,58.637,81.114,57.419,81.864,56.13z M39.408,53.29   c-0.324,0.319-0.848,0.312-1.166-0.013c-0.316-0.327-0.311-0.849,0.016-1.168c0.324-0.315,0.849-0.31,1.166,0.019   C39.74,52.452,39.732,52.975,39.408,53.29z M50.912,52.778c-0.117,0.114-0.27,0.172-0.422,0.172c-0.156,0-0.312-0.062-0.432-0.181   c-1.371-1.407-3.066-2.322-4.772-2.578c-1.647-0.246-3.103,0.155-4.104,1.131c-0.238,0.233-0.62,0.229-0.854-0.009   c-0.232-0.238-0.228-0.622,0.012-0.855c1.275-1.244,3.095-1.764,5.125-1.461c1.967,0.293,3.903,1.332,5.459,2.929   C51.155,52.163,51.15,52.546,50.912,52.778z"></path><path fill="#000000" d="M45.464,48.999c-2.03-0.304-3.85,0.215-5.125,1.461c-0.238,0.232-0.244,0.615-0.012,0.854   c0.233,0.239,0.615,0.243,0.854,0.009c1.001-0.976,2.456-1.377,4.104-1.131c1.706,0.256,3.401,1.171,4.772,2.578   c0.117,0.119,0.275,0.18,0.432,0.18c0.152,0,0.305-0.057,0.422-0.171c0.238-0.233,0.243-0.614,0.012-0.853   C49.368,50.331,47.429,49.292,45.464,48.999z"></path><path fill="#000000" d="M38.257,52.109c-0.326,0.319-0.332,0.841-0.016,1.168c0.318,0.324,0.842,0.332,1.166,0.013   c0.324-0.315,0.332-0.838,0.016-1.162C39.105,51.8,38.582,51.794,38.257,52.109z"></path><path fill="#000000" d="M29.591,76.066c-0.498,0-0.901,0.401-0.901,0.902c0,0.495,0.403,0.899,0.901,0.899s0.901-0.404,0.901-0.899   C30.494,76.468,30.089,76.066,29.591,76.066z"></path><path fill="#000000" d="M24.313,58.296c-0.06,0-0.12-0.01-0.181-0.031c-3.417-1.071-6.377-3.348-9.241-5.555   c-0.816-0.629-1.589-1.222-2.373-1.791c-0.27-0.196-0.329-0.572-0.134-0.844c0.194-0.271,0.574-0.332,0.844-0.135   c0.798,0.578,1.612,1.205,2.401,1.812c2.779,2.14,5.654,4.354,8.864,5.361c0.319,0.1,0.495,0.438,0.396,0.758   C24.809,58.128,24.57,58.296,24.313,58.296z"></path><path fill="#000000" d="M22.658,54.667c-0.025,0-0.05,0-0.076-0.004c-0.328-0.043-0.565-0.344-0.523-0.675   c0.188-1.528-0.172-2.995-0.991-4.02c-0.209-0.261-0.165-0.642,0.096-0.849c0.261-0.211,0.642-0.166,0.849,0.094   c1.037,1.297,1.479,3.046,1.246,4.922C23.216,54.442,22.958,54.667,22.658,54.667z"></path><path fill="#000000" d="M27.687,54.947c-0.104,0-0.211-0.028-0.307-0.085c-0.287-0.171-0.384-0.541-0.213-0.826   c0.467-0.787,0.627-1.787,0.48-2.973c-0.043-0.332,0.191-0.633,0.523-0.675c0.334-0.038,0.633,0.194,0.674,0.522   c0.183,1.459-0.032,2.717-0.639,3.739C28.093,54.841,27.894,54.947,27.687,54.947z"></path><path fill="#000000" d="M15.486,58.048c-1.071,0-2.165-0.25-3.158-0.737c-0.3-0.149-0.423-0.513-0.276-0.812   s0.512-0.422,0.809-0.274c1.456,0.716,3.152,0.815,4.543,0.261c0.309-0.125,0.66,0.027,0.783,0.338   c0.124,0.309-0.027,0.659-0.337,0.784C17.111,57.901,16.305,58.048,15.486,58.048z"></path><path fill="#000000" d="M93.636,59.786H81.645c0.632-0.877,1.229-1.793,1.784-2.742l4.617-7.914   c0.196-0.336,0.154-0.758-0.099-1.053c-0.255-0.293-0.67-0.39-1.028-0.242l-0.938,0.385l2.092-3.663   c1.977,0.81,4.301,0.06,5.406-1.835c1.209-2.075,0.507-4.745-1.566-5.956c-1.379-0.804-3.021-0.756-4.322-0.03   c-0.006-1.492-0.774-2.943-2.152-3.747c-1.005-0.585-2.178-0.745-3.303-0.45c-1.123,0.295-2.065,1.012-2.651,2.019   c-1.104,1.891-0.615,4.28,1.058,5.604l-2.037,3.354l-0.052-0.588c-0.032-0.393-0.317-0.719-0.704-0.807   c-0.39-0.084-0.781,0.088-0.981,0.428l-2.728,4.675c-1.273,2.185-3.74,3.756-6.767,4.319c-4.431,0.822-9.402-0.655-13.647-4.058   c-0.052-0.04-0.107-0.075-0.166-0.104c-3.062-2.43-7.103-3.588-11.194-2.854c-0.699,0.127-1.38,0.308-2.039,0.532   c-0.16-1.691-1.767-2.115-2.851-2.396c-0.312-0.082-0.606-0.16-0.854-0.252c-0.603-0.228-0.777-0.607-1.06-1.322   c-0.226-0.572-0.481-1.223-1.121-1.771c-0.851-0.728-1.875-0.858-2.78-0.972c-0.789-0.104-1.535-0.197-2.15-0.646   c-0.194-0.14-0.395-0.3-0.6-0.461c-1.259-0.988-2.983-2.35-4.851-1.037c-1.479,1.035-1.899,2.771-1.257,5.163   c-1.256,0.638-1.702,1.738-1.701,2.78c-1.006,0.032-1.948,0.322-2.869,0.613c-1.164,0.365-2.263,0.712-3.412,0.481   c-0.358-0.071-0.736-0.163-1.126-0.258c-2.377-0.567-5.635-1.349-7.384,1.656c-1.388,2.384-0.858,5.063,1.57,7.969   C6.351,56.393,6.52,58.3,7.303,59.786H6.659c-0.501,0-0.906,0.406-0.906,0.906v5.438c0,8.203,5.768,15.078,13.459,16.797   c-0.482,0.615-0.772,1.389-0.772,2.229c0,1.999,1.625,3.625,3.624,3.625h56.168c2,0,3.625-1.626,3.625-3.625   c0-0.84-0.289-1.613-0.771-2.229c7.69-1.719,13.457-8.594,13.457-16.797v-5.438C94.542,60.19,94.136,59.786,93.636,59.786z    M81.87,40.3c0.085-0.141,0.11-0.305,0.07-0.463c-0.04-0.156-0.144-0.291-0.281-0.373c-1.498-0.873-2.005-2.805-1.132-4.299   c0.424-0.729,1.104-1.246,1.917-1.459c0.812-0.213,1.659-0.099,2.384,0.326c1.498,0.872,2.008,2.803,1.133,4.301   c-0.168,0.287-0.068,0.656,0.219,0.826c0.289,0.168,0.658,0.069,0.826-0.219c0.871-1.497,2.803-2.005,4.301-1.129   c1.496,0.874,2.005,2.803,1.132,4.302c-0.876,1.496-2.806,2.003-4.304,1.128c-0.14-0.08-0.305-0.101-0.459-0.061   c-0.155,0.043-0.289,0.145-0.369,0.283l-3.14,5.502l-0.517,0.212l-0.439-3.507c-0.035-0.279-0.197-0.527-0.441-0.67   c-0.243-0.144-0.54-0.162-0.801-0.055l-3.227,1.325l-0.062-0.722L81.87,40.3z M42.585,46.31c6.157-1.104,12.434,2.936,13.98,9.003   c0.123,0.485,0.615,0.776,1.102,0.653c0.484-0.123,0.777-0.615,0.654-1.102c-0.279-1.093-0.695-2.119-1.207-3.078   c3.458,1.608,7.104,2.166,10.487,1.536c3.546-0.659,6.463-2.549,8.002-5.187l1.289-2.209l0.149,1.729   c0.024,0.286,0.186,0.545,0.433,0.695c0.245,0.15,0.548,0.175,0.813,0.064l3.271-1.342l0.438,3.506   c0.034,0.28,0.198,0.526,0.442,0.672c0.243,0.142,0.542,0.16,0.801,0.053l1.892-0.775l-3.27,5.602   c-0.75,1.289-1.582,2.508-2.482,3.656H32.603c-0.002-0.012-0.006-0.022-0.006-0.033C31.855,53.458,36.337,47.426,42.585,46.31z    M23.632,42.278c0.312-0.107,0.479-0.443,0.379-0.758c-0.688-2.132-0.478-3.552,0.643-4.334c1.05-0.736,2.033-0.083,3.408,0.999   c0.218,0.172,0.431,0.339,0.635,0.487c0.867,0.633,1.85,0.758,2.712,0.867c0.843,0.106,1.57,0.199,2.146,0.693   c0.41,0.352,0.593,0.811,0.783,1.297c0.293,0.741,0.627,1.582,1.758,2.008c0.308,0.114,0.647,0.205,0.977,0.291   c1.368,0.355,1.968,0.609,1.962,1.524c0,0.06,0.019,0.112,0.032,0.165c-1.709,0.775-3.23,1.889-4.493,3.243   c-1.258-2.498-3.758-2.06-5.595-1.732c-0.488,0.087-0.948,0.169-1.356,0.199c-0.985,0.074-1.479-0.351-2.329-1.165   c-0.681-0.648-1.451-1.383-2.682-1.736c-0.139-0.037-0.271-0.061-0.407-0.086C22.169,43.579,22.39,42.708,23.632,42.278z    M7.778,47.544c0.994-1.709,2.783-1.426,5.396-0.801c0.41,0.098,0.812,0.192,1.189,0.271c1.607,0.319,3.046-0.134,4.313-0.533   c1.244-0.392,2.319-0.726,3.438-0.409c0.797,0.225,1.345,0.748,1.922,1.303c0.882,0.84,1.882,1.791,3.714,1.66   c0.502-0.035,1.032-0.13,1.545-0.223c2.137-0.379,3.135-0.411,3.717,0.874c0.093,0.201,0.25,0.349,0.436,0.438   c-1.99,2.732-3.031,6.153-2.665,9.66H9.488c-0.005-0.006-0.008-0.013-0.014-0.019c-0.629-0.707-1.872-2.562,0.148-4.498   c0.355-0.341,0.374-0.904,0.041-1.269C7.338,51.474,6.719,49.36,7.778,47.544z M78.231,86.966H22.063c-1,0-1.812-0.812-1.812-1.812   c0-0.999,0.812-1.812,1.812-1.812c0.062,0,0.123-0.004,0.182-0.019c0.239,0.013,0.479,0.019,0.722,0.019h54.361   c0.242,0,0.483-0.006,0.723-0.019c0.06,0.015,0.121,0.019,0.182,0.019c0.999,0,1.812,0.813,1.812,1.812   C80.044,86.153,79.23,86.966,78.231,86.966z M92.731,66.128c0,8.492-6.911,15.401-15.403,15.401H22.966   c-3.79,0-7.262-1.377-9.946-3.655h12.03c0.498,0,0.905-0.405,0.905-0.905c0-0.503-0.407-0.908-0.905-0.908H11.21   c-0.923-1.09-1.694-2.308-2.287-3.624h9.479c0.501,0,0.906-0.404,0.906-0.906c0-0.5-0.405-0.906-0.906-0.906H8.237   c-0.354-1.155-0.574-2.371-0.645-3.625h5.069c0.501,0,0.906-0.405,0.906-0.905s-0.405-0.906-0.906-0.906H7.565v-3.59h23.53h1.873   h44.873h2.403H92.73L92.731,66.128L92.731,66.128z"></path><path fill="#000000" d="M28.875,44.593c-0.21,0-0.414-0.11-0.525-0.305c-0.374-0.658-0.728-1.332-1.074-1.996   c-0.305-0.584-0.607-1.16-0.919-1.713c-0.163-0.293-0.06-0.66,0.229-0.824c0.291-0.162,0.66-0.061,0.823,0.231   c0.315,0.563,0.623,1.151,0.935,1.744c0.344,0.651,0.688,1.312,1.058,1.959c0.164,0.289,0.063,0.658-0.228,0.823   C29.078,44.567,28.976,44.593,28.875,44.593z"></path><path fill="#000000" d="M31.698,45.722c-0.108,0-0.218-0.028-0.319-0.09c-0.281-0.176-0.369-0.549-0.194-0.831   c0.503-0.81,0.68-1.722,0.487-2.5c-0.08-0.324,0.118-0.652,0.441-0.732c0.323-0.081,0.65,0.12,0.73,0.442   c0.272,1.107,0.049,2.326-0.633,3.425C32.097,45.622,31.898,45.722,31.698,45.722z"></path></g></svg>