<?xml version="1.0" encoding="UTF-8"?>
<svg width="78px" height="73px" viewBox="0 0 78 73" version="1.1" xmlns="http://www.w3.org/2000/svg" xmlns:xlink="http://www.w3.org/1999/xlink">
    <!-- Generator: Sketch 41.2 (35397) - http://www.bohemiancoding.com/sketch -->
    <title>plus</title>
    <desc>Created with Sketch.</desc>
    <defs></defs>
    <g id="Page-1" fill-rule="evenodd">
        <g id="plus"  >
            <g id="Group" transform="translate(2.000000, 0.000000)">
                <path d="M36.78125,0.33093 C35.7508578,0.444160117 34.9777057,1.32582479 35,2.36218 L35,34.36218 L3,34.36218 C2.09786685,34.3955352 1.4553308,34.8076582 1.12698541,35.44327 C0.798640021,36.0788819 0.834382644,36.8413911 1.22074624,37.443501 C1.60710983,38.0456109 2.28538025,38.395821 3,38.36218 L35,38.36218 L35,70.36218 C34.9897994,71.0834518 35.3687506,71.7543427 35.9917457,72.1179554 C36.6147408,72.4815682 37.3852592,72.4815682 38.0082543,72.1179554 C38.6312494,71.7543427 39.0102006,71.0834518 39,70.36218 L39,38.36218 L71,38.36218 C71.7212718,38.3723806 72.3921627,37.9934294 72.7557754,37.3704343 C73.1193882,36.7474392 73.1193882,35.9769208 72.7557754,35.3539257 C72.3921627,34.7309306 71.7212718,34.3519794 71,34.36218 L39,34.36218 L39,2.36218 C39.0124076,1.78618765 38.7758491,1.23281673 38.3509071,0.843785328 C37.9259651,0.454753923 37.3539119,0.267846508 36.78125,0.33093 Z" id="Shape"></path>
            </g>
        </g>
    </g>
</svg>