<?xml version="1.0" encoding="UTF-8"?>
<svg width="78px" height="73px" viewBox="0 0 78 73" version="1.1" xmlns="http://www.w3.org/2000/svg" xmlns:xlink="http://www.w3.org/1999/xlink">
    <!-- Generator: Sketch 41.2 (35397) - http://www.bohemiancoding.com/sketch -->
    <title>refresh</title>
    <desc>Created with Sketch.</desc>
    <defs></defs>
    <g id="Page-1"  fill-rule="evenodd">
        <g id="refresh" >
            <g id="Group" transform="translate(5.000000, 0.000000)">
                <path d="M56.71875,0.33093 C56.1645306,0.412337178 55.6698444,0.722416277 55.3550197,1.18574309 C55.0401951,1.64906991 54.9340851,2.22318153 55.0625,2.76843 L57.46875,13.70593 C51.320193,7.943772 43.029242,4.36218 34,4.36218 C15.24601,4.36218 0,19.60817 0,38.36218 C0,57.11618 15.24601,72.36218 34,72.36218 C52.75399,72.36218 68,57.11618 68,38.36218 C68.0102057,37.6409048 67.6312557,36.9700085 67.0082585,36.6063926 C66.3852612,36.2427767 65.6147388,36.2427767 64.9917415,36.6063926 C64.3687443,36.9700085 63.9897943,37.6409048 64,38.36218 C64,54.95438 50.592233,68.36218 34,68.36218 C17.407767,68.36218 4,54.95438 4,38.36218 C4,21.76993 17.407767,8.36218 34,8.36218 C43.050599,8.36218 51.3037,12.428457 56.84375,18.76843 L40.8125,20.36218 C40.0579577,20.3701802 39.3721367,20.8021355 39.0389948,21.4791987 C38.7058529,22.1562618 38.7820975,22.9631835 39.2361601,23.5658652 C39.6902228,24.1685469 40.4448132,24.4644003 41.1875,24.33093 L61.1875,22.33093 C61.7519842,22.2723944 62.2650306,21.9768259 62.5988246,21.5178592 C62.9326185,21.0588926 63.0557342,20.4797381 62.9375,19.92468 L58.9375,1.92468 C58.7323627,0.892456092 57.7624428,0.195753058 56.71875,0.33093 L56.71875,0.33093 Z" id="Shape"></path>
            </g>
        </g>
    </g>
</svg>