<?xml version="1.0" encoding="UTF-8"?>
<svg width="78px" height="59px" viewBox="0 0 78 59" version="1.1" xmlns="http://www.w3.org/2000/svg" xmlns:xlink="http://www.w3.org/1999/xlink">
    <!-- Generator: Sketch 41.2 (35397) - http://www.bohemiancoding.com/sketch -->
    <title>x</title>
    <desc>Created with Sketch.</desc>
    <defs></defs>
    <g id="Page-1"  fill-rule="evenodd">
        <g id="x"  >
            <g id="Group" transform="translate(9.000000, 0.000000)">
                <path d="M2.78125,0.33093 C2.00274123,0.406695458 1.33982712,0.929303134 1.08442726,1.66861851 C0.829027406,2.40793388 1.02800943,3.2282875 1.59375,3.76843 L27.1875,29.36218 L1.59375,54.92468 C1.06916785,55.4235728 0.855099036,56.166981 1.03402867,56.8684542 C1.2129583,57.5699273 1.75695663,58.1199701 2.45640993,58.3066396 C3.15586322,58.4933092 3.90159137,58.2874677 4.40625,57.76843 L30,32.17468 L55.59375,57.76843 C56.0984086,58.2874677 56.8441368,58.4933092 57.5435901,58.3066396 C58.2430434,58.1199701 58.7870417,57.5699273 58.9659713,56.8684542 C59.144901,56.166981 58.9308322,55.4235728 58.40625,54.92468 L32.8125,29.36218 L58.40625,3.76843 C59.0427816,3.17060131 59.2179069,2.22893382 58.8388609,1.44223454 C58.4598148,0.655535267 57.6142228,0.205667926 56.75,0.33093 C56.3092314,0.394608205 55.9023201,0.603562624 55.59375,0.92468 L30,26.51843 L4.40625,0.92468 C3.9826199,0.490625992 3.38492245,0.272236539 2.78125,0.33093 Z" id="Shape"></path>
            </g>
        </g>
    </g>
</svg>